<?xml version="1.0" encoding="utf-8"?>
<!-- Generator: Adobe Illustrator 17.1.0, SVG Export Plug-In . SVG Version: 6.00 Build 0)  -->
<!DOCTYPE svg PUBLIC "-//W3C//DTD SVG 1.1//EN" "http://www.w3.org/Graphics/SVG/1.1/DTD/svg11.dtd">
<svg version="1.1" id="Layer_1" xmlns="http://www.w3.org/2000/svg" xmlns:xlink="http://www.w3.org/1999/xlink" x="0px" y="0px"
	 viewBox="0 0 181.8 141.2" enable-background="new 0 0 181.8 141.2" xml:space="preserve">
<g>
	<path fill="#7E8083" d="M143.5,141.2H38.2c-21.1,0-38.2-17.1-38.2-38V38.1C0,17.1,17.2,0,38.2,0h105.3c21.1,0,38.2,17.1,38.2,38.1
		v65.1C181.8,124.1,164.6,141.2,143.5,141.2 M38.2,18.5c-10.9,0-19.8,8.8-19.8,19.6v65.1c0,10.8,8.9,19.6,19.8,19.6h105.3
		c10.9,0,19.8-8.8,19.8-19.6V38.1c0-10.8-8.9-19.6-19.8-19.6H38.2z"/>
	<path fill="#7E8083" d="M49,60.5c2.1,0,4,0.3,5.9,0.9V18.8v-3.5c-0.7-3-3.1-5.2-6-5.2c-2.9,0-5.3,2.2-6,5.2v3.5v42.6
		C44.9,60.8,46.9,60.5,49,60.5"/>
	<path fill="#D11242" d="M48.9,82.6c5.6,0,10.6,2.3,14.3,6c1.3-2.4,2.1-5.1,2.1-8c0-9-7.3-16.4-16.4-16.4c-9,0-16.4,7.3-16.4,16.4
		c0,2.9,0.8,5.6,2.1,8C38.3,84.9,43.4,82.6,48.9,82.6"/>
	<path fill="#D11242" d="M133,38.5c6.2,0,11.8,2.8,15.5,7.3c0.6-1.7,0.9-3.4,0.9-5.3c0-9.1-7.3-16.4-16.4-16.4
		c-9,0-16.4,7.3-16.4,16.4c0,1.9,0.3,3.6,0.9,5.3C121.2,41.3,126.8,38.5,133,38.5"/>
	<path fill="#D11242" d="M133,58.2c6,0,11.4,2.6,15.1,6.8c0.8-2,1.3-4.2,1.3-6.4c0-9-7.3-16.4-16.4-16.4c-9,0-16.4,7.3-16.4,16.4
		c0,2.3,0.5,4.5,1.3,6.4C121.7,60.9,127,58.2,133,58.2"/>
	<path fill="#D11242" d="M133,62c-9,0-16.4,7.3-16.4,16.4c0,6.3,3.5,11.7,8.7,14.5v-4v-3.9c0.9-3.4,3.9-5.9,7.5-5.9
		c3.6,0,6.7,2.5,7.5,5.9v3.9V93c5.3-2.7,9-8.2,9-14.6C149.4,69.3,142.1,62,133,62"/>
	<path fill="#7E8083" d="M132.9,81c-2.9,0-5.3,2-6,4.6v3v40.9h11.9V88.7v-3C138.2,83,135.8,81,132.9,81"/>
	<path fill="#7E8083" d="M133,20.3c2,0,4,0.3,5.8,0.9V10.4V8.6c-0.7-1.6-3.1-2.8-6-2.8c-2.9,0-5.3,1.2-6,2.8v1.8v10.9
		C128.9,20.7,130.9,20.3,133,20.3"/>
	<path fill="#D11242" d="M93.8,38.5c6.2,0,11.8,2.8,15.5,7.3c0.6-1.7,0.9-3.4,0.9-5.3c0-9.1-7.3-16.4-16.4-16.4
		c-9,0-16.4,7.3-16.4,16.4c0,1.9,0.3,3.6,0.9,5.3C82,41.3,87.6,38.5,93.8,38.5"/>
	<path fill="#D11242" d="M93.8,58.2c6,0,11.4,2.6,15.1,6.8c0.8-2,1.3-4.2,1.3-6.4c0-9-7.3-16.4-16.4-16.4c-9,0-16.4,7.3-16.4,16.4
		c0,2.3,0.5,4.5,1.3,6.4C82.4,60.9,87.8,58.2,93.8,58.2"/>
	<path fill="#D11242" d="M93.8,62c-9,0-16.4,7.3-16.4,16.4c0,6.3,3.5,11.7,8.7,14.5v-4v-3.9c0.9-3.4,3.9-5.9,7.5-5.9
		c3.6,0,6.7,2.5,7.5,5.9v3.9V93c5.3-2.7,9-8.2,9-14.6C110.2,69.3,102.9,62,93.8,62"/>
	<path fill="#7E8083" d="M93.7,81c-2.9,0-5.3,2-6,4.6v3v40.9h11.9V88.7v-3C98.9,83,96.5,81,93.7,81"/>
	<path fill="#7E8083" d="M93.8,20.3c2,0,4,0.3,5.8,0.9V10.4V8.6c-0.7-1.6-3.1-2.8-6-2.8c-2.9,0-5.3,1.2-6,2.8v1.8v10.9
		C89.6,20.7,91.7,20.3,93.8,20.3"/>
	<path fill="#D11242" d="M48.9,86.4c-9,0-16.4,7.3-16.4,16.4c0,6.3,3.6,11.8,8.9,14.5v-1.7v-3.9c0.9-3.4,3.9-5.9,7.5-5.9
		c3.6,0,6.7,2.5,7.5,5.9v3.9v1.7c5.2-2.7,8.8-8.2,8.8-14.5C65.3,93.7,58,86.4,48.9,86.4"/>
	<path fill="#7E8083" d="M48.9,107.8c-2.9,0-5.3,2-6,4.6v3v14.3h11.9v-14.3v-3C54.2,109.8,51.8,107.8,48.9,107.8"/>
</g>
</svg>
