<?xml version="1.0" encoding="utf-8"?>
<!-- Generator: Adobe Illustrator 17.1.0, SVG Export Plug-In . SVG Version: 6.00 Build 0)  -->
<!DOCTYPE svg PUBLIC "-//W3C//DTD SVG 1.1//EN" "http://www.w3.org/Graphics/SVG/1.1/DTD/svg11.dtd">
<svg version="1.1" id="Layer_1" xmlns="http://www.w3.org/2000/svg" xmlns:xlink="http://www.w3.org/1999/xlink" x="0px" y="0px"
	 viewBox="0 0 960 560" enable-background="new 0 0 960 560" xml:space="preserve">
<path fill="#FFFFFF" d="M146.7,230.2c-6.9-8.6-14.7-15.1-23.5-19.8c-10.2-5.3-21.7-8-34.3-8c-21.7,0-40.5,8-56,23.5
	c-15.3,15.5-23.3,34.7-23.3,56.6c0,22.5,7.8,41.7,23.1,57.4s34.1,23.7,55.6,23.7c12.3,0,23.5-2.7,33.7-7.6
	c9-4.3,17.2-10.6,24.5-18.8V360h22.7V206.3h-22.5V230.2z M131.2,241.7c11,11.2,16.6,25.3,16.6,42.1c0,11-2.5,21-7.4,29.8
	c-4.9,8.8-12.1,15.7-21,20.8c-18.2,10.2-39.8,10.4-57.4,0c-8.8-5.1-15.9-12.5-21-21.9c-5.3-9.4-8-19.2-8-29.4s2.7-20.2,7.8-29.4
	s12.3-16.6,21-21.5c8.8-5.1,18.4-7.6,28.8-7.6C106.5,224.7,120.4,230.4,131.2,241.7"/>
<path fill="#FFFFFF" d="M280.2,202.5c-12.1,0-23.5,2.5-33.7,7.6c-8.8,4.3-17,10.6-24.5,19v-80.5H199V360h22.9v-24.1
	c6.9,8.6,14.9,15.1,23.5,19.8c10.2,5.3,21.7,8,34.1,8c21.7,0,40.5-8,56-23.5c15.3-15.5,23.3-34.7,23.3-56.8
	c0-22.3-7.8-41.7-23.1-57.2C320.4,210.4,301.6,202.5,280.2,202.5 M335.5,282.8c0,10.2-2.7,20.2-7.8,29.4s-12.3,16.6-21,21.5
	c-8.8,5.1-18.4,7.8-28.8,7.8c-16.1,0-29.8-5.7-40.9-17c-11-11.2-16.6-25.5-16.6-42.3c0-11,2.5-21,7.4-29.8
	c4.9-8.8,12.1-15.7,21.3-21c9.2-5.1,19-7.8,29-7.8c10,0,19.4,2.7,28.2,7.8c8.8,5.1,15.9,12.5,21,21.9
	C332.9,262.7,335.5,272.5,335.5,282.8"/>
<path fill="#FFFFFF" d="M514.7,206.3v23.9c-6.9-8.6-14.7-15.1-23.5-19.8c-10.2-5.3-21.7-8-34.3-8c-21.7,0-40.5,8-56,23.5
	c-15.5,15.5-23.3,34.7-23.3,56.6c0,22.5,7.8,41.7,23.1,57.4c15.3,15.7,33.9,23.7,55.6,23.7c12.3,0,23.5-2.7,33.7-7.6
	c9-4.3,17.2-10.6,24.5-18.8V360h22.9V206.3H514.7z M516,283.8c0,11-2.5,21-7.4,29.8c-4.9,8.8-12.1,15.7-21,20.8
	c-9.2,5.1-19,7.8-29,7.8s-19.6-2.7-28.4-7.8c-8.8-5.1-15.9-12.5-21-21.9c-5.3-9.2-8-19.2-8-29.4s2.7-20.2,7.8-29.4
	s12.3-16.6,21-21.5c8.8-5.1,18.4-7.8,28.8-7.8c16.1,0,29.8,5.7,40.9,17C510.4,252.9,516,267,516,283.8"/>
<path fill="#D11242" d="M701.7,230.2c-6.9-8.6-14.7-15.1-23.5-19.8c-10.2-5.3-21.7-8-34.3-8c-21.7,0-40.7,8-56,23.5
	c-15.5,15.5-23.3,34.7-23.3,56.6c0,22.5,7.8,41.7,23.1,57.4s34.1,23.7,55.6,23.7c12.3,0,23.5-2.7,33.7-7.6
	c9-4.3,17.2-10.6,24.5-18.8v77.4h22.7V206.3h-22.7v23.9H701.7z M686.4,241.7c11,11.2,16.6,25.3,16.6,42.1c0,11-2.5,21-7.4,29.8
	c-4.9,8.8-12.1,15.7-21,20.8c-18.2,10.2-39.8,10.4-57.6,0c-8.8-5.1-15.9-12.5-21-21.9c-5.3-9.4-8-19.2-8-29.4s2.7-20.2,7.8-29.4
	c5.1-9.2,12.3-16.3,21-21.5c8.8-5.1,18.4-7.6,28.8-7.6C661.7,224.7,675.4,230.4,686.4,241.7"/>
<path fill="#D11242" d="M772.4,144.6c-4.7,0-9,1.8-12.5,5.3c-3.5,3.5-5.3,7.8-5.3,12.7c0,4.7,1.8,9,5.3,12.5
	c3.5,3.5,7.6,5.3,12.5,5.3c4.9,0,9-1.8,12.5-5.3c3.5-3.5,5.1-7.6,5.1-12.5c0-4.9-1.8-9.2-5.1-12.7
	C781.6,146.5,777.3,144.6,772.4,144.6"/>
<rect x="761.2" y="206.3" fill="#D11242" width="22.9" height="153.5"/>
<path fill="#D11242" d="M867.4,271.1c-11.4-5.9-19-11-22.7-15.3c-3.5-4.1-5.1-8.4-5.1-12.7c0-5.1,2-9.4,6.1-13.1
	c4.1-3.9,9-5.7,14.9-5.7c9.4,0,19,4.9,29,14.5l1.4,1.2l14.9-15.5l-1.2-1.2c-14.3-13.7-28.8-20.8-42.9-20.8
	c-12.3,0-22.7,3.9-30.7,11.9c-8.2,7.8-12.3,17.8-12.3,29.6c0,9,2.7,17.4,7.6,24.3c5.1,6.9,14.5,14.1,28.2,21.3
	c12.3,6.3,20.2,11.4,23.7,15.5c3.3,4.1,4.9,8.4,4.9,13.5c0,6.1-2.5,11.4-7.6,16.1c-5.1,4.7-11.2,6.9-18.6,6.9
	c-10.4,0-20.4-5.3-30-16.1l-1.4-1.6l-14.5,16.6l1,1.2c5.3,6.7,12.1,12.3,20.2,16.1s16.8,5.7,25.5,5.7c13.5,0,24.7-4.5,33.7-13.3
	c9-8.8,13.5-19.8,13.5-32.5c0-9.2-2.7-17.4-8-24.7C892,286,881.9,278.7,867.4,271.1"/>
<path fill="#D11242" d="M933,183.4c11.4,0,20.6,9.4,20.6,20.8c0,11.9-9.2,21-20.6,21s-20.8-9.2-20.8-21
	C912.2,192.6,921.4,183.4,933,183.4L933,183.4z M932.8,186.7c-9.2,0-16.8,8-16.8,17.8c0,10,7.6,17.8,16.8,17.8
	c9.4,0,16.8-7.8,16.8-17.6C949.8,194.5,942.2,186.7,932.8,186.7L932.8,186.7z M928.9,216.6h-3.7v-23.3c2-0.2,3.9-0.6,6.5-0.6
	c3.5,0,5.9,0.8,7.2,1.8c1.4,1,2,2.7,2,4.9c0,3.1-2,4.9-4.5,5.7v0.2c2,0.4,3.5,2.2,3.9,5.7c0.6,3.7,1,5.1,1.4,5.7h-3.9
	c-0.6-0.8-1-2.9-1.6-5.9c-0.6-3.1-2-4.1-5.1-4.1h-2.7v9.8H928.9z M928.9,203.7h2.7c3.1,0,5.7-1,5.7-4.1c0-2-1.4-4.1-5.7-4.1
	c-1.2,0-2,0-2.7,0.2V203.7z"/>
</svg>
